<svg width="482" height="346" viewBox="0 0 482 346" fill="none" xmlns="http://www.w3.org/2000/svg">
<path fill-rule="evenodd" clip-rule="evenodd" d="M282 0L437.885 270H282H126.115L282 0ZM282 41L160 251H282H406L282 41Z" fill="white"/>
<path fill-rule="evenodd" clip-rule="evenodd" d="M215.78 155.5L156.5 53L31 270H156.5H282L271.301 251.5H254.42L256.33 254.73H156.5H58.2798L156.5 85.9519L206.415 170.341L215.78 155.5Z" fill="white"/>
<path d="M257.331 84.6449C257.331 84.6449 259.728 113.746 291.884 101.701C324.039 89.6554 340.095 127.14 340.095 127.14L351.241 156.371C351.627 157.299 351.8 157.838 351.8 157.838L351.241 156.371C348.455 149.666 334.603 122.637 295.16 131.426C250.256 141.433 238.52 105.015 238.52 105.015L255.5 81L257.331 84.6449Z" fill="white"/>
<path d="M9.2758 301.584V316.272H26.8846V322.968H9.2758V338.304H29.0857V345H0.911621V294.888H29.0857V301.584H9.2758ZM64.994 345.504C61.5701 345.504 58.4885 344.928 55.7494 343.776C53.0102 342.576 50.858 340.896 49.2928 338.736C47.7276 336.576 46.945 334.056 46.945 331.176H55.8961C56.0918 333.336 56.9477 335.112 58.4641 336.504C60.0293 337.896 62.2059 338.592 64.994 338.592C67.8799 338.592 70.1299 337.92 71.744 336.576C73.3582 335.184 74.1652 333.408 74.1652 331.248C74.1652 329.568 73.6516 328.2 72.6245 327.144C71.6462 326.088 70.3989 325.272 68.8826 324.696C67.4152 324.12 65.3608 323.496 62.7195 322.824C59.3934 321.96 56.6787 321.096 54.5755 320.232C52.5211 319.32 50.7602 317.928 49.2928 316.056C47.8254 314.184 47.0917 311.688 47.0917 308.568C47.0917 305.688 47.8254 303.168 49.2928 301.008C50.7602 298.848 52.8146 297.192 55.4559 296.04C58.0972 294.888 61.1543 294.312 64.6271 294.312C69.5674 294.312 73.6027 295.536 76.7332 297.984C79.9125 300.384 81.6734 303.696 82.0158 307.92H72.7712C72.6245 306.096 71.744 304.536 70.1299 303.24C68.5157 301.944 66.388 301.296 63.7467 301.296C61.3499 301.296 59.3934 301.896 57.8771 303.096C56.3608 304.296 55.6026 306.024 55.6026 308.28C55.6026 309.816 56.0673 311.088 56.9967 312.096C57.9749 313.056 59.1978 313.824 60.6652 314.4C62.1326 314.976 64.138 315.6 66.6815 316.272C70.0565 317.184 72.7957 318.096 74.8989 319.008C77.0511 319.92 78.8609 321.336 80.3283 323.256C81.8446 325.128 82.6028 327.648 82.6028 330.816C82.6028 333.36 81.8935 335.76 80.4751 338.016C79.1055 340.272 77.0756 342.096 74.3853 343.488C71.744 344.832 68.6136 345.504 64.994 345.504ZM98.4885 319.872C98.4885 314.976 99.638 310.584 101.937 306.696C104.285 302.808 107.44 299.784 111.402 297.624C115.413 295.416 119.791 294.312 124.535 294.312C129.965 294.312 134.783 295.632 138.989 298.272C143.245 300.864 146.326 304.56 148.234 309.36H138.182C136.861 306.72 135.027 304.752 132.679 303.456C130.331 302.16 127.617 301.512 124.535 301.512C121.16 301.512 118.152 302.256 115.511 303.744C112.869 305.232 110.791 307.368 109.274 310.152C107.807 312.936 107.073 316.176 107.073 319.872C107.073 323.568 107.807 326.808 109.274 329.592C110.791 332.376 112.869 334.536 115.511 336.072C118.152 337.56 121.16 338.304 124.535 338.304C127.617 338.304 130.331 337.656 132.679 336.36C135.027 335.064 136.861 333.096 138.182 330.456H148.234C146.326 335.256 143.245 338.952 138.989 341.544C134.783 344.136 129.965 345.432 124.535 345.432C119.742 345.432 115.364 344.352 111.402 342.192C107.44 339.984 104.285 336.936 101.937 333.048C99.638 329.16 98.4885 324.768 98.4885 319.872ZM197.57 334.776H176.219L172.551 345H163.82L182.089 294.888H191.774L210.043 345H201.238L197.57 334.776ZM195.222 328.08L186.931 304.824L178.567 328.08H195.222ZM235.155 338.376H252.397V345H226.791V294.96H235.155V338.376ZM298.938 334.776H277.587L273.919 345H265.188L283.457 294.888H293.142L311.411 345H302.606L298.938 334.776ZM296.59 328.08L288.299 304.824L279.935 328.08H296.59ZM361.102 294.96V301.656H347.529V345H339.165V301.656H325.518V294.96H361.102ZM401.635 345.504C396.891 345.504 392.513 344.424 388.502 342.264C384.54 340.056 381.385 337.008 379.037 333.12C376.738 329.184 375.589 324.768 375.589 319.872C375.589 314.976 376.738 310.584 379.037 306.696C381.385 302.808 384.54 299.784 388.502 297.624C392.513 295.416 396.891 294.312 401.635 294.312C406.429 294.312 410.807 295.416 414.769 297.624C418.779 299.784 421.934 302.808 424.233 306.696C426.532 310.584 427.682 314.976 427.682 319.872C427.682 324.768 426.532 329.184 424.233 333.12C421.934 337.008 418.779 340.056 414.769 342.264C410.807 344.424 406.429 345.504 401.635 345.504ZM401.635 338.376C405.01 338.376 408.019 337.632 410.66 336.144C413.301 334.608 415.356 332.448 416.823 329.664C418.339 326.832 419.097 323.568 419.097 319.872C419.097 316.176 418.339 312.936 416.823 310.152C415.356 307.368 413.301 305.232 410.66 303.744C408.019 302.256 405.01 301.512 401.635 301.512C398.26 301.512 395.252 302.256 392.611 303.744C389.969 305.232 387.891 307.368 386.374 310.152C384.907 312.936 384.173 316.176 384.173 319.872C384.173 323.568 384.907 326.832 386.374 329.664C387.891 332.448 389.969 334.608 392.611 336.144C395.252 337.632 398.26 338.376 401.635 338.376ZM471.203 345L459.464 324.984H453.081V345H444.717V294.96H462.326C466.239 294.96 469.54 295.632 472.23 296.976C474.97 298.32 477 300.12 478.32 302.376C479.69 304.632 480.375 307.152 480.375 309.936C480.375 313.2 479.396 316.176 477.44 318.864C475.532 321.504 472.573 323.304 468.562 324.264L481.182 345H471.203ZM453.081 318.432H462.326C465.456 318.432 467.804 317.664 469.369 316.128C470.983 314.592 471.79 312.528 471.79 309.936C471.79 307.344 471.008 305.328 469.442 303.888C467.877 302.4 465.505 301.656 462.326 301.656H453.081V318.432Z" fill="white"/>
</svg>
